<?xml version="1.0" encoding="utf-8"?>
<!-- Generator: Adobe Illustrator 19.0.0, SVG Export Plug-In . SVG Version: 6.00 Build 0)  -->
<svg version="1.1" id="Layer_1" xmlns="http://www.w3.org/2000/svg" xmlns:xlink="http://www.w3.org/1999/xlink" x="0px" y="0px"
	 viewBox="0 0 560 560" enable-background="new 0 0 560 560" xml:space="preserve">
<path id="XMLID_17_" d="M290.4,515.4l-0.2-104.6l9.6-3c8-2.7,14.8-5.5,22.3-8.6c49-20,69.7-59.4,75.5-111.4c-35.4,0-70.2,0-106.1,0
	c0-82,0-162.2,0-243.2c80.8,0,161.1,0,243.4,0c0,5.9,0,11.3,0,16.7c0,65.2,0,130.5,0,195.7c0,133.5-71.7,222.4-202.2,250.9
	C319.4,510.9,305.9,512.7,290.4,515.4z"/>
<path id="XMLID_3_" d="M25.2,515.4L25,410.8l9.6-3c8-2.7,14.8-5.5,22.3-8.6c49-20,69.7-59.4,75.5-111.4c-35.4,0-70.2,0-106.1,0
	c0-82,0-162.2,0-243.2c80.8,0,161.1,0,243.4,0c0,5.9,0,11.3,0,16.7c0,65.2,0,130.5,0,195.7c0,133.5-71.7,222.4-202.2,250.9
	C54.2,510.9,40.6,512.7,25.2,515.4z"/>
</svg>
